<?xml version="1.0" standalone="no"?>
<!DOCTYPE svg PUBLIC "-//W3C//DTD SVG 20010904//EN"
 "http://www.w3.org/TR/2001/REC-SVG-20010904/DTD/svg10.dtd">
<svg version="1.0" xmlns="http://www.w3.org/2000/svg"
 width="394.000000pt" height="394.000000pt" viewBox="0 0 394.000000 394.000000"
 preserveAspectRatio="xMidYMid meet">
<metadata>
Created by potrace 1.14, written by Peter Selinger 2001-2017
</metadata>
<g transform="translate(0.000000,394.000000) scale(0.100000,-0.100000)"
fill="#000000" stroke="none">
<path d="M439 2428 c-11 -18 -25 -52 -32 -76 -10 -37 -22 -51 -77 -90 -78 -55
-193 -164 -221 -208 -10 -18 -16 -39 -13 -48 9 -23 30 -14 27 12 -3 28 80 118
179 193 43 33 78 56 78 52 -1 -4 -18 -77 -38 -161 l-38 -154 -60 -26 c-33 -15
-61 -31 -62 -37 -1 -6 21 -9 55 -7 47 3 55 2 50 -11 -13 -35 -19 -87 -9 -87
11 0 32 53 32 81 0 17 9 19 84 19 95 0 172 -12 222 -36 42 -20 58 -10 26 16
-29 24 -104 39 -222 44 -52 2 -96 9 -98 14 -2 6 29 29 67 52 177 103 336 252
393 368 26 52 30 68 22 90 -9 26 -13 27 -74 26 -68 -1 -132 -26 -247 -93 -61
-36 -65 -29 -28 45 29 57 28 54 15 54 -6 0 -19 -15 -31 -32z m329 0 c59 -59
-154 -302 -374 -429 -30 -17 -56 -30 -58 -28 -3 4 65 282 76 310 8 21 169 113
240 139 63 22 99 25 116 8z m-473 -518 c-3 -5 -12 -10 -18 -10 -7 0 -6 4 3 10
19 12 23 12 15 0z"/>
<path d="M2142 2449 c-56 -21 -157 -158 -134 -181 14 -14 32 -1 25 18 -10 25
107 157 124 140 10 -10 -21 -139 -94 -398 -36 -131 -63 -241 -59 -245 11 -12
19 7 50 124 16 59 31 110 32 112 2 1 41 -20 88 -48 93 -56 191 -140 201 -172
8 -23 25 -25 25 -2 0 44 -92 128 -229 209 l-64 38 24 16 c101 65 399 328 399
351 0 19 -18 7 -70 -47 -94 -95 -346 -301 -357 -290 -2 2 1 16 7 32 21 55 70
269 70 306 0 43 -6 49 -38 37z"/>
<path d="M1177 2323 c-2 -5 -20 -66 -38 -137 -32 -121 -36 -130 -69 -151 -42
-27 -89 -39 -109 -26 -12 8 -12 14 4 37 16 25 19 26 25 10 5 -16 7 -16 19 -2
7 8 10 20 6 26 -12 19 -45 10 -78 -21 -69 -67 -121 -74 -115 -18 3 29 0 32
-28 35 -36 4 -59 -16 -69 -58 -9 -33 16 -48 48 -29 14 9 22 10 30 2 16 -16 53
-14 89 5 28 15 32 15 40 0 12 -22 75 -21 121 3 36 18 37 18 37 0 0 -28 18 -23
61 16 43 39 69 45 69 16 0 -53 40 -67 102 -35 28 15 32 15 40 0 12 -22 73 -20
127 4 l44 20 14 -20 c21 -29 70 -26 126 10 26 16 47 34 47 40 0 15 -8 13 -40
-10 -37 -27 -77 -41 -95 -34 -23 9 -18 75 15 203 17 63 28 116 26 119 -13 12
-26 -20 -57 -144 l-34 -137 -53 -25 c-36 -16 -61 -22 -79 -17 -30 7 -21 22 17
27 17 2 26 10 28 26 5 32 -22 28 -89 -13 -75 -46 -103 -49 -107 -12 -5 38 -34
52 -71 32 -16 -8 -33 -19 -36 -25 -3 -5 -10 -10 -15 -10 -4 0 7 57 26 128 19
70 37 137 40 150 6 20 -9 32 -19 15z m-397 -292 c-12 -23 -30 -36 -30 -22 0
21 13 41 26 41 11 0 12 -4 4 -19z"/>
<path d="M2541 2263 c-49 -166 -61 -249 -39 -271 18 -18 69 -14 104 7 30 18
31 18 42 0 15 -23 52 -24 92 -4 27 14 30 14 30 0 0 -24 20 -18 61 20 43 39 69
45 69 16 0 -55 39 -67 98 -31 17 11 32 19 32 17 0 -1 -7 -27 -15 -57 -18 -66
-18 -70 -5 -70 12 0 14 5 30 68 10 37 13 41 30 32 27 -14 75 -12 117 5 19 8
37 15 39 15 2 0 4 -7 4 -15 0 -24 20 -18 61 20 43 39 69 45 69 16 0 -52 41
-68 89 -35 22 16 24 16 33 0 13 -22 82 -21 136 4 43 19 43 19 37 0 -11 -35 21
-23 44 16 l22 37 23 -23 c23 -20 27 -21 72 -8 26 7 50 20 52 27 3 10 0 12 -14
7 -11 -5 -35 -10 -55 -13 -31 -4 -37 -2 -42 16 -6 23 -36 28 -55 9 -9 -9 -12
-9 -12 0 0 7 -17 0 -37 -16 -42 -33 -106 -57 -128 -48 -23 9 -17 26 9 26 26 0
51 24 41 40 -3 5 -14 10 -23 10 -15 0 -33 -10 -110 -62 -31 -21 -49 -14 -57
22 -9 40 -31 44 -82 14 -43 -25 -45 -25 -38 -5 8 28 4 27 -47 -9 -53 -37 -96
-46 -122 -27 -19 14 -19 15 11 31 42 21 63 44 63 67 0 24 -36 26 -68 3 -28
-19 -28 -15 5 107 14 54 23 102 19 106 -12 12 -20 -9 -55 -145 -32 -126 -34
-129 -73 -155 -45 -29 -68 -26 -68 9 0 13 -9 28 -21 34 -17 10 -28 7 -60 -14
-46 -31 -49 -32 -42 -6 7 26 -9 25 -33 -1 -22 -25 -81 -52 -94 -44 -6 4 -10
19 -10 36 0 16 -4 29 -10 29 -5 0 -10 -4 -10 -10 0 -5 -20 -21 -45 -35 -92
-55 -106 -9 -55 180 33 123 34 125 20 125 -5 0 -18 -30 -29 -67z m580 -184
c-35 -28 -51 -22 -17 7 15 14 31 22 35 19 3 -4 -5 -15 -18 -26z"/>
<path d="M2672 2123 c-8 -14 -9 -24 -2 -28 12 -7 24 18 18 37 -3 8 -9 5 -16
-9z"/>
<path d="M1652 1550 c0 -25 3 -35 5 -22 4 22 5 23 19 5 14 -17 14 -17 26 2 12
19 12 19 19 -5 5 -20 7 -15 8 20 l1 45 -25 -30 c-13 -16 -24 -25 -25 -19 0 5
-7 19 -15 30 -13 18 -14 16 -13 -26z"/>
<path d="M1830 1550 c0 -39 1 -40 33 -39 23 1 26 3 10 6 -26 5 -31 23 -8 23 8
0 15 5 15 10 0 6 -7 10 -15 10 -23 0 -18 18 8 23 16 3 13 5 -10 6 -32 1 -33 0
-33 -39z"/>
<path d="M1990 1549 c0 -39 1 -40 33 -37 25 2 33 8 35 27 4 27 -20 51 -50 51
-14 0 -18 -8 -18 -41z m60 3 c0 -13 -23 -32 -37 -32 -13 0 -18 41 -7 53 8 7
44 -10 44 -21z"/>
<path d="M2163 1550 c0 -25 2 -35 4 -22 2 12 2 32 0 45 -2 12 -4 2 -4 -23z"/>
<path d="M2280 1550 c-11 -22 -16 -40 -10 -40 5 0 10 5 10 10 0 6 9 10 19 10
11 0 23 -4 26 -10 3 -5 11 -10 16 -10 5 0 0 18 -11 40 -11 22 -22 40 -25 40
-3 0 -14 -18 -25 -40z m35 0 c3 -5 -1 -10 -10 -10 -9 0 -13 5 -10 10 3 6 8 10
10 10 2 0 7 -4 10 -10z"/>
<path d="M668 1533 c133 -2 351 -2 485 0 133 1 24 2 -243 2 -267 0 -376 -1
-242 -2z"/>
<path d="M2858 1533 c127 -2 337 -2 465 0 127 1 23 2 -233 2 -256 0 -360 -1
-232 -2z"/>
</g>
</svg>
